<?xml version="1.0" encoding="UTF-8"?>
<svg id="Layer_1" data-name="Layer 1" xmlns="http://www.w3.org/2000/svg" xmlns:xlink="http://www.w3.org/1999/xlink" viewBox="0 0 150 50">
  <defs>
    <style>
      .cls-1 {
        fill: url(#linear-gradient-12);
      }

      .cls-1, .cls-2, .cls-3, .cls-4, .cls-5, .cls-6, .cls-7, .cls-8, .cls-9, .cls-10, .cls-11, .cls-12, .cls-13, .cls-14, .cls-15, .cls-16, .cls-17, .cls-18, .cls-19, .cls-20, .cls-21, .cls-22, .cls-23 {
        stroke-width: 0px;
      }

      .cls-2 {
        fill: url(#linear-gradient-17);
      }

      .cls-3 {
        fill: url(#linear-gradient-19);
      }

      .cls-4 {
        fill: url(#linear-gradient);
      }

      .cls-5 {
        fill: url(#linear-gradient-21);
      }

      .cls-6 {
        fill: url(#linear-gradient-6);
      }

      .cls-7 {
        fill: url(#linear-gradient-15);
      }

      .cls-8 {
        fill: url(#linear-gradient-11);
      }

      .cls-9 {
        fill: #3f84c5;
      }

      .cls-9, .cls-14 {
        fill-rule: evenodd;
      }

      .cls-10 {
        fill: url(#linear-gradient-5);
      }

      .cls-24 {
        fill: #102051;
        font-family: Gilroy-Bold, Gilroy-Bold;
        font-size: 26.59px;
        font-weight: 700;
      }

      .cls-11 {
        fill: url(#linear-gradient-13);
      }

      .cls-12 {
        fill: url(#linear-gradient-16);
      }

      .cls-13 {
        fill: url(#linear-gradient-20);
      }

      .cls-14 {
        fill: #041d42;
      }

      .cls-15 {
        fill: url(#linear-gradient-14);
      }

      .cls-16 {
        fill: url(#linear-gradient-2);
      }

      .cls-17 {
        fill: url(#linear-gradient-7);
      }

      .cls-18 {
        fill: url(#linear-gradient-3);
      }

      .cls-19 {
        fill: url(#linear-gradient-9);
      }

      .cls-20 {
        fill: url(#linear-gradient-8);
      }

      .cls-21 {
        fill: url(#linear-gradient-18);
      }

      .cls-22 {
        fill: url(#linear-gradient-10);
      }

      .cls-23 {
        fill: url(#linear-gradient-4);
      }
    </style>
    <linearGradient id="linear-gradient" x1="50.64" y1="40.92" x2="128.52" y2="19.55" gradientUnits="userSpaceOnUse">
      <stop offset=".01" stop-color="#4575ba"/>
      <stop offset=".47" stop-color="#0faecf"/>
      <stop offset="1" stop-color="#62b773"/>
    </linearGradient>
    <linearGradient id="linear-gradient-2" x1="51.13" y1="42.7" x2="129.01" y2="21.32" xlink:href="#linear-gradient"/>
    <linearGradient id="linear-gradient-3" x1="51.24" y1="43.12" x2="129.13" y2="21.74" xlink:href="#linear-gradient"/>
    <linearGradient id="linear-gradient-4" x1="51.72" y1="44.85" x2="129.6" y2="23.48" xlink:href="#linear-gradient"/>
    <linearGradient id="linear-gradient-5" x1="52.02" y1="45.97" x2="129.91" y2="24.59" xlink:href="#linear-gradient"/>
    <linearGradient id="linear-gradient-6" x1="52.07" y1="46.15" x2="129.96" y2="24.78" xlink:href="#linear-gradient"/>
    <linearGradient id="linear-gradient-7" x1="52.61" y1="48.1" x2="130.49" y2="26.73" xlink:href="#linear-gradient"/>
    <linearGradient id="linear-gradient-8" x1="52.69" y1="48.41" x2="130.58" y2="27.03" xlink:href="#linear-gradient"/>
    <linearGradient id="linear-gradient-9" x1="52.97" y1="49.43" x2="130.86" y2="28.05" xlink:href="#linear-gradient"/>
    <linearGradient id="linear-gradient-10" x1="53.27" y1="50.5" x2="131.15" y2="29.13" xlink:href="#linear-gradient"/>
    <linearGradient id="linear-gradient-11" x1="53.67" y1="51.96" x2="131.55" y2="30.59" xlink:href="#linear-gradient"/>
    <linearGradient id="linear-gradient-12" x1="54" y1="53.16" x2="131.88" y2="31.78" xlink:href="#linear-gradient"/>
    <linearGradient id="linear-gradient-13" x1="54.25" y1="54.1" x2="132.14" y2="32.72" xlink:href="#linear-gradient"/>
    <linearGradient id="linear-gradient-14" x1="54.55" y1="55.19" x2="132.44" y2="33.81" xlink:href="#linear-gradient"/>
    <linearGradient id="linear-gradient-15" x1="54.83" y1="56.19" x2="132.71" y2="34.81" xlink:href="#linear-gradient"/>
    <linearGradient id="linear-gradient-16" x1="94.86" y1="14.91" x2="118.84" y2="14.91" xlink:href="#linear-gradient"/>
    <linearGradient id="linear-gradient-17" x1="-.52" y1="39.28" x2="19.98" y2="21.42" xlink:href="#linear-gradient"/>
    <linearGradient id="linear-gradient-18" x1=".16" y1="40.05" x2="20.65" y2="22.19" xlink:href="#linear-gradient"/>
    <linearGradient id="linear-gradient-19" x1="1.21" y1="41.27" x2="21.71" y2="23.41" xlink:href="#linear-gradient"/>
    <linearGradient id="linear-gradient-20" x1="2.34" y1="42.56" x2="22.83" y2="24.7" xlink:href="#linear-gradient"/>
    <linearGradient id="linear-gradient-21" x1="3.07" y1="43.4" x2="23.56" y2="25.53" xlink:href="#linear-gradient"/>
  </defs>
  <g>
    <path class="cls-4" d="m62.12,39.61c.25,0,.46-.03.62-.08.3-.11.45-.31.45-.6,0-.17-.07-.3-.22-.4-.15-.09-.38-.17-.7-.24l-.55-.12c-.54-.12-.91-.25-1.11-.39-.35-.24-.52-.61-.52-1.12,0-.46.17-.85.5-1.15.34-.31.83-.46,1.48-.46.54,0,1.01.14,1.39.43.38.29.58.71.6,1.25h-1.04c-.02-.31-.15-.53-.41-.66-.17-.09-.38-.13-.63-.13-.28,0-.5.06-.66.17-.17.11-.25.27-.25.47,0,.18.08.32.24.41.1.06.33.13.67.21l.89.21c.39.09.68.22.88.37.31.24.46.59.46,1.05s-.18.86-.54,1.17c-.36.31-.87.47-1.53.47s-1.2-.15-1.58-.46c-.38-.31-.58-.73-.58-1.26h1.03c.03.24.1.41.19.53.17.21.47.32.9.32Z"/>
    <path class="cls-16" d="m68.24,37.91h-1.02c-.02-.14-.07-.27-.14-.38-.11-.15-.29-.23-.52-.23-.34,0-.57.17-.69.5-.07.18-.1.41-.1.71s.03.5.1.68c.12.32.34.48.67.48.23,0,.4-.06.5-.19.1-.13.16-.29.18-.49h1.02c-.02.3-.13.59-.33.86-.31.44-.78.65-1.39.65s-1.06-.18-1.35-.55-.43-.84-.43-1.42c0-.66.16-1.16.48-1.53.32-.36.76-.55,1.32-.55.48,0,.87.11,1.17.32.3.21.48.59.54,1.14Z"/>
    <path class="cls-18" d="m72.37,38.12v2.24h-1.02v-2.32c0-.2-.03-.37-.1-.5-.09-.18-.26-.27-.52-.27s-.46.09-.6.26-.2.43-.2.75v2.06h-.99v-5.14h.99v1.82c.14-.22.31-.38.5-.46.19-.09.39-.13.6-.13.24,0,.45.04.64.12.19.08.35.21.47.37.11.14.17.29.19.44.02.15.03.4.03.74Z"/>
    <path class="cls-23" d="m76.48,37.03c.32.4.48.88.48,1.43s-.16,1.04-.48,1.44-.81.6-1.47.6-1.14-.2-1.47-.6c-.32-.4-.48-.88-.48-1.44s.16-1.03.48-1.43c.32-.4.81-.61,1.47-.61s1.14.2,1.47.61Zm-1.47.24c-.29,0-.52.1-.67.31-.16.21-.24.5-.24.88s.08.68.24.88c.16.21.38.31.67.31s.52-.1.67-.31c.16-.21.23-.5.23-.88s-.08-.68-.23-.88c-.16-.21-.38-.31-.67-.31Z"/>
    <path class="cls-10" d="m80.86,37.03c.32.4.48.88.48,1.43s-.16,1.04-.48,1.44c-.32.4-.81.6-1.47.6s-1.14-.2-1.47-.6-.48-.88-.48-1.44.16-1.03.48-1.43.81-.61,1.47-.61,1.14.2,1.47.61Zm-1.47.24c-.29,0-.52.1-.67.31-.16.21-.24.5-.24.88s.08.68.24.88.38.31.67.31.52-.1.67-.31c.16-.21.23-.5.23-.88s-.08-.68-.23-.88c-.16-.21-.38-.31-.67-.31Z"/>
    <path class="cls-6" d="m82.07,35.2h1v5.16h-1v-5.16Z"/>
    <path class="cls-17" d="m89.21,37.03c.32.4.48.88.48,1.43s-.16,1.04-.48,1.44-.81.6-1.47.6-1.14-.2-1.47-.6c-.32-.4-.48-.88-.48-1.44s.16-1.03.48-1.43c.32-.4.81-.61,1.47-.61s1.14.2,1.47.61Zm-1.47.24c-.29,0-.52.1-.67.31-.16.21-.24.5-.24.88s.08.68.24.88c.16.21.38.31.67.31s.52-.1.67-.31.23-.5.23-.88-.08-.68-.23-.88c-.16-.21-.38-.31-.67-.31Z"/>
    <path class="cls-20" d="m92.2,35.17v.81c-.06,0-.15-.01-.28-.02-.13,0-.22.03-.27.09-.05.06-.08.13-.08.2v.32h.65v.7h-.65v3.07h-.99v-3.07h-.56v-.7h.55v-.24c0-.41.07-.69.21-.84.14-.23.49-.34,1.05-.34.06,0,.12,0,.17,0,.05,0,.12,0,.21.02Z"/>
    <path class="cls-19" d="m98.52,36.12h-2.58v1.19h2.26v.9h-2.26v2.16h-1.07v-5.15h3.65v.91Z"/>
    <path class="cls-22" d="m100.18,35.17v.92h-1.01v-.92h1.01Zm0,1.37v3.81h-1.01v-3.81h1.01Z"/>
    <path class="cls-8" d="m102.94,37.28c-.34,0-.57.14-.7.43-.07.15-.1.35-.1.58v2.06h-.99v-3.81h.96v.56c.13-.2.25-.34.36-.42.2-.15.46-.23.78-.23.39,0,.72.1.97.31.25.21.38.55.38,1.03v2.57h-1.02v-2.32c0-.2-.03-.35-.08-.46-.1-.2-.28-.29-.56-.29Z"/>
    <path class="cls-1" d="m105.67,36.96c.26-.34.72-.5,1.36-.5.42,0,.79.08,1.11.25.32.17.49.48.49.94v1.75c0,.12,0,.27,0,.44,0,.13.03.22.06.27.03.05.08.09.15.12v.15h-1.08c-.03-.08-.05-.15-.06-.22-.01-.07-.02-.14-.03-.23-.14.15-.3.28-.48.38-.21.12-.46.19-.73.19-.34,0-.63-.1-.86-.3-.22-.2-.34-.48-.34-.84,0-.47.18-.81.54-1.02.2-.11.49-.2.87-.24l.34-.04c.18-.02.32-.05.4-.09.14-.06.21-.15.21-.28,0-.16-.05-.26-.16-.32-.11-.06-.27-.09-.48-.09-.24,0-.4.06-.5.17-.07.09-.12.2-.14.35h-.96c.02-.33.11-.61.28-.82Zm.74,2.68c.09.08.21.12.34.12.21,0,.41-.06.59-.19s.27-.36.28-.69v-.37c-.06.04-.13.07-.19.1-.06.02-.15.05-.26.07l-.22.04c-.21.04-.36.08-.45.14-.15.09-.23.23-.23.42,0,.17.05.29.14.37Z"/>
    <path class="cls-11" d="m111.3,37.28c-.34,0-.57.14-.7.43-.07.15-.1.35-.1.58v2.06h-.99v-3.81h.96v.56c.13-.2.25-.34.36-.42.2-.15.46-.23.78-.23.39,0,.72.1.97.31.25.21.38.55.38,1.03v2.57h-1.02v-2.32c0-.2-.03-.35-.08-.46-.1-.2-.28-.29-.56-.29Z"/>
    <path class="cls-15" d="m117.18,37.91h-1.02c-.02-.14-.07-.27-.14-.38-.11-.15-.29-.23-.52-.23-.34,0-.57.17-.69.5-.07.18-.1.41-.1.71s.03.5.1.68c.12.32.34.48.67.48.23,0,.4-.06.5-.19.1-.13.16-.29.18-.49h1.02c-.02.3-.13.59-.33.86-.31.44-.78.65-1.39.65s-1.06-.18-1.35-.55-.43-.84-.43-1.42c0-.66.16-1.16.48-1.53.32-.36.76-.55,1.32-.55.48,0,.87.11,1.17.32.3.21.48.59.54,1.14Z"/>
    <path class="cls-7" d="m121.13,39.24c-.03.23-.14.46-.35.69-.33.37-.78.56-1.37.56-.49,0-.91-.16-1.28-.47-.37-.31-.56-.82-.56-1.53,0-.66.17-1.17.5-1.52.33-.35.77-.53,1.3-.53.32,0,.6.06.86.18.25.12.46.31.63.56.15.23.25.49.29.79.03.17.04.43.03.76h-2.61c.01.38.13.65.36.8.14.1.3.14.5.14.21,0,.37-.06.5-.17.07-.06.13-.15.19-.26h1.02Zm-.99-1.17c-.02-.26-.1-.46-.24-.6-.14-.14-.32-.2-.53-.2-.23,0-.41.07-.54.22s-.21.34-.24.59h1.55Z"/>
  </g>
  <rect class="cls-12" x="94.86" y="13.39" width="23.98" height="3.04"/>
  <g>
    <path class="cls-14" d="m28.33,33.69c-.04-.18.02-.15-.45-.21-.38-.05-.76-.08-1.13-.16-.36-.08-.72-.17-1.09-.22-.9-.13-1.5-.14-2.07.37-.4.36-.71,1.01-.84,1.74-.14.76-.06,1.7-.08,2.49-.02,1.08-.03.99.55,2.04.15.27.33.59.55.74.24.18.14.12.5.13.42.01,3,.03,3.21,0,.02-.15-.08-.48-.14-.59-.09-.17-.23-.3-.37-.39-.3-.19-.75-.3-1.15-.37-.12-.46-.21-.57.02-1.05.38-.81.77-1.54.84-2.45.01-.18,0-.47.03-.63.03-.02,0-.01.05-.02h.17c.49.08,1.3.05,1.8.05.02-.09-.1-.36-.14-.48l-.27-1.01Z"/>
    <path class="cls-14" d="m46.21,23.93c.23.14.79.44,1.08.52,0-.94-.1-.75-.43-1.19-.74-.05-.96.47-.65.67Z"/>
    <path class="cls-14" d="m50.52,28.41c-.43-.31-1.29-.83-1.4-1.37-.05-.27-.02-.55-.13-.8-.11-.25-.7-.73-.95-.9-.37-.24-.73-.45-1.17-.66-.54-.27-.79-.27-1.11-.74-.24-.36-.43-.83-.95-.9-.34-.05-.52.1-.66.27-.09.1-.29.43-.34.58-.65.01-1.68-.55-2.11-.77-.19-.09-.77-.39-1-.43-.27-.05-.37.09-.47.23-.11.14-.21.28-.3.43-.77,1.29-.91,2.73-1.57,4.18-.41.89-1,1.94-1.6,2.69-.11.13-.21.25-.32.39-.16.21-.86.92-1.07,1.1-.28.22-.46.4-.79.64-.32.24-1.39.8-1.84,1.04.06,1.32-.51,1.91-.29,3.64.03.27.15.9.27,1.08.3-.12,2.01-1.56,2.32-1.91.13-.15.07-.15-.1-.61-.14-.39-.31-.92-.31-1.4.12.09.64,1.07.71,1.21.42.79.99,1.61,1.53,2.32.15.19.29.35.44.53.48.57.82.91,1.31,1.57l.42.55c.21.21.28.25.69.27.59.03,3.28.02,3.84-.01.02-.46-.21-.78-.44-.96-.33-.26-.63-.23-1.11-.3-.29-.04-.31-.06-.47-.22-.27-.27-.5-1.16-.62-1.53-.26-.81-.4-1.48-.38-2.43.01-.72.16-1.84.5-2.33.32-.46,1.06-.87,1.65-1.17.81-.4,1.31-.47,2.37-.4,1.09.07,1.6-.36,2.57-.19.6.1,1.27.4,1.8.17.15-.07.32-.21.37-.34-.7-.21-1.32-.28-1.72-.73.46,0,1.38.6,2.13.34.21-.07.42-.27.55-.42.06-.07.11-.1.17-.16.17-.17.48-.42.59-.71-.31-.47-.54-.46-1.02-.8Zm-3.16-1.66c.64.01.69.03.77.68-.76,0-.61,0-.77-.68Z"/>
  </g>
  <g>
    <path class="cls-9" d="m41.19,12.79c.21.22.8.75.91.96l.61-.22c.21-.07.42-.13.63-.19.43-.14.81-.31,1.09-.55.87-.74,1.17-1.5,1.06-2.74,0-.09,0-.09-.04-.13-.36.23-.38,1.55-1.52,2.04-.43.19-.88.31-1.39.4-.45.08-1.47.07-1.65.13.03.1.23.23.3.3Z"/>
    <path class="cls-9" d="m45.25,18.36c-.59-.53-1.05-1.08-1.49-1.75-.34-.52-.61-1.11-.96-1.63-.18-.27-.39-.41-.66-.62-.14-.11-.23-.18-.35-.3-.06-.06-.11-.09-.17-.15l-.83-.79c-.49-.44-1.67-1.08-2.35-.75-.1.05-.34.17-.41.24.07.19.23.34.42.42.18.07.12.05.2.22.03.07.1.21.11.27-.52-.13-1.14,0-1.14-.83,0-1.48,2.35-1.33,3.52-2.22.38-.29.71-.63.81-1.13-.45.16-.52.41-1.57.66-.3.07-.63.13-.93.19-.84.17-1.85.39-2.56.78-.51.29-.83.78-.83,1.4,0,.97.62,1.09.81,1.42l-1.88.11c.11.17.28.39.42.54.31.34.7.59,1.16.78.09.04.66.24.68.28-.16.05-.76.07-.94.04-.28-.05-.54-.18-.71-.32-.39-.32-.62-.81-.97-1.09-.13,0-.31.06-.44.09-1.21.24-2.1-.04-3.41.4-1.29.43-2.33,1.4-3.07,2.33-.3.38-.71.78-1.05,1.12-.46.46-1.46.98-2.08,1.18-.58.19-1.19.28-1.85.34v13.43c.28-.21.54-.43.87-.6,1.28-.64,2.9.07,4.27.15-.07-.59-.51-1.49-.51-2.55,0-.37,0-1.07.12-1.38.05.09.11.42.14.55.05.19.1.38.15.57.24.86.43,1.33.69,2.13.11.34.23.71.33,1.07.11.37.23.71.34,1.07.39,1.38.72,2.31.72,3.84,0,.24-.06.52-.08.76-.04.38-.05.43.2.61.18.12.36.17.4.44.04.25.03.54.05.81,0,.11-.01.11.09.12.51.07,2.75.03,3.17,0-.18-.59-.94-1.3-1.3-1.85-.38-.58-.64-1.66-.64-2.51,0-.74.07-1.2.19-1.93.26-1.58.22-2.88,1.05-4.29.12-.2.23-.34.36-.53.41-.62.64-1.02.87-1.8.47-1.58-.04-2.67.02-3.17l.27.52c.09.2.15.39.22.6.31.96.27,2-.08,2.94-.23.64-.63,1.18-.95,1.75-.3.54-.7,1.26-.78,1.93.2-.05.68-.32.85-.42.83-.49,1.44-1.08,2.04-1.83.45-.57,1.21-1.69,1.54-2.33.46-.91.75-1.86,1.01-2.88.21-.8.56-1.57,1.01-2.21l.22-.26c.24-.27.5-.43.84-.63.27-.15.57-.29.84-.45.27-.16.54-.35.84-.47.83-.33,1.35.45,2.13.18.29-.1.6-.33.79-.5.25-.22.39-.35.55-.75.06-.15.11-.33.12-.51.02-.42-.13-.57-.45-.86Zm-4.83-1.92c-.07-.23-.28-.49-.34-.75.27.02.56.05.78.13.23.09.31.26.32.57l-.76.04Zm4.22,2.99c-.15.05-.19.03-.27-.07-.07-.09-.21-.46-.21-.56.11-.01.22-.03.33-.04.23-.02.44.44.47.55-.09.06-.19.08-.31.12Z"/>
  </g>
  <g>
    <rect class="cls-2" x="1.51" y="31.8" width="2.95" height="8.85"/>
    <rect class="cls-21" x="5.83" y="27" width="2.95" height="13.65"/>
    <rect class="cls-3" x="10.15" y="23.74" width="2.95" height="16.92"/>
    <rect class="cls-13" x="14.21" y="21.21" width="2.95" height="19.45"/>
    <rect class="cls-5" x="18.44" y="16.78" width="2.95" height="23.87"/>
  </g>
  <text class="cls-24" transform="translate(56.83 32.01)"><tspan x="0" y="0">Swedro</tspan></text>
</svg>